<svg xmlns="http://www.w3.org/2000/svg" xmlns:xlink="http://www.w3.org/1999/xlink" viewBox="0 0 520 564">
	<defs>
		<style>
			.cls-1{fill:url(#radial-gradient);}.cls-2,.cls-5,.cls-7{fill:none;}.cls-3{isolation:isolate;}.cls-4{mask:url(#mask);}.cls-5,.cls-7{stroke-miterlimit:10;}.cls-5{stroke-width:1.74px;stroke:url(#linear-gradient);}.cls-6{fill:url(#linear-gradient-2);}.cls-7{stroke:#fff;stroke-width:4.35px;}.cls-8{fill:#44c688;}.cls-9{fill:#f15a24;}.cls-10{fill:aqua;}.cls-11{fill:url(#linear-gradient-3);}.cls-12{clip-path:url(#clip-path);}.cls-13,.cls-38{opacity:0.25;}.cls-13{fill:url(#linear-gradient-4);}.cls-14{fill:#2db5f9;}.cls-15{fill:#5fd2ff;mix-blend-mode:screen;}.cls-16{fill:#c83ad7;}.cls-17{opacity:0.4;}.cls-18{fill:#fff;}.cls-19{fill:url(#linear-gradient-5);}.cls-20{fill:#ff737d;}.cls-21{opacity:0.62;fill:url(#linear-gradient-6);}.cls-22,.cls-40{opacity:0.45;}.cls-22{fill:url(#linear-gradient-7);}.cls-23{fill:#ed1c24;}.cls-24{fill:#c1272d;}.cls-25{fill:#f7b852;}.cls-26{fill:#ff8431;}.cls-27{fill:url(#linear-gradient-8);}.cls-28{fill:url(#linear-gradient-9);}.cls-29{fill:url(#linear-gradient-10);}.cls-30{fill:url(#linear-gradient-11);}.cls-31{fill:url(#linear-gradient-12);}.cls-32{fill:url(#linear-gradient-13);}.cls-33{fill:url(#linear-gradient-14);}.cls-34{fill:#29b36e;}.cls-35{fill:#fff4c0;}.cls-36{fill:#219058;}.cls-37{clip-path:url(#clip-path-2);}.cls-38{fill:url(#linear-gradient-16);}.cls-39{fill:#6fd191;}.cls-40{fill:url(#radial-gradient-2);}.cls-41{fill:url(#linear-gradient-17);}.cls-42{fill:url(#linear-gradient-18);}.cls-43{fill:#fba9ff;}
		</style>
		<radialGradient id="radial-gradient" cx="289.86" cy="133.62" r="394.42" gradientUnits="userSpaceOnUse">
			<stop offset="0.38" stop-color="#fff"/>
			<stop offset="1"/>
		</radialGradient>
		<mask id="mask" x="-32.71" y="0" width="664.43" height="564" maskUnits="userSpaceOnUse">
			<rect class="cls-1" x="-32.71" y="5.86" width="619.16" height="535.92"/>
		</mask>
		<linearGradient id="linear-gradient" x1="120.46" y1="318.98" x2="120.08" y2="320.64"
						gradientUnits="userSpaceOnUse">
			<stop offset="0" stop-color="#ff1d25" stop-opacity="0.5"/>
			<stop offset="0.06" stop-color="#ff1d25" stop-opacity="0.54"/>
			<stop offset="0.37" stop-color="#ff1d25" stop-opacity="0.74"/>
			<stop offset="0.64" stop-color="#ff1d25" stop-opacity="0.88"/>
			<stop offset="0.86" stop-color="#ff1d25" stop-opacity="0.97"/>
			<stop offset="1" stop-color="#ff1d25"/>
		</linearGradient>
		<linearGradient id="linear-gradient-2" x1="133.59" y1="356.29" x2="133.59" y2="316.14"
						gradientUnits="userSpaceOnUse">
			<stop offset="0" stop-color="#fffa8f"/>
			<stop offset="1" stop-color="#fb784b"/>
		</linearGradient>
		<linearGradient id="linear-gradient-3" x1="89.24" y1="548.59" x2="548.22" y2="190.64"
						gradientUnits="userSpaceOnUse">
			<stop offset="0"/>
			<stop offset="1" stop-color="#d23de2"/>
		</linearGradient>
		<clipPath id="clip-path">
			<path class="cls-2"
				  d="M509,259.33a98.8,98.8,0,0,0-18.5-57.68c-10.51-10.2-26.14-17.31-44.17-18.4a78.49,78.49,0,0,1,27.26,59.53c0,26.42-9.59,56.62-40.65,72.87-45.23,23.67-114.63,12.41-159.67,27l.19-.06a47.44,47.44,0,0,0-20.76,26.72c-.12.39-.22.78-.33,1.18h0c13.2-11.55,39.22-19.88,90-13.35,36.25,4.67,65.05,5.94,89.78-1.16,24.72-5.36,44.7-19.58,58.78-39.59h0A98.8,98.8,0,0,0,509,259.33Z"/>
		</clipPath>
		<linearGradient id="linear-gradient-4" x1="489.38" y1="196.08" x2="476.02" y2="222.79"
						gradientUnits="userSpaceOnUse">
			<stop offset="0"/>
			<stop offset="1" stop-opacity="0"/>
		</linearGradient>
		<linearGradient id="linear-gradient-5" x1="156.86" y1="73.98" x2="70.64" y2="310.87"
						gradientUnits="userSpaceOnUse">
			<stop offset="0"/>
			<stop offset="0.21" stop-color="#48080a"/>
			<stop offset="0.42" stop-color="#891014"/>
			<stop offset="0.61" stop-color="#bc151b"/>
			<stop offset="0.78" stop-color="#e01a21"/>
			<stop offset="0.91" stop-color="#f71c24"/>
			<stop offset="1" stop-color="#ff1d25"/>
		</linearGradient>
		<linearGradient id="linear-gradient-6" x1="194.33" y1="102.63" x2="183.38" y2="120.86"
						gradientUnits="userSpaceOnUse">
			<stop offset="0" stop-opacity="0"/>
			<stop offset="0.96" stop-opacity="0.91"/>
			<stop offset="1"/>
		</linearGradient>
		<linearGradient id="linear-gradient-7" x1="406.4" y1="223.04" x2="406.4" y2="181.09"
						gradientUnits="userSpaceOnUse">
			<stop offset="0" stop-opacity="0"/>
			<stop offset="1"/>
		</linearGradient>
		<linearGradient id="linear-gradient-8" x1="432.77" y1="180.16" x2="447.57" y2="167.97"
						gradientUnits="userSpaceOnUse">
			<stop offset="0" stop-color="#5bcb99"/>
			<stop offset="1" stop-color="#85a8e8"/>
		</linearGradient>
		<linearGradient id="linear-gradient-9" x1="152.42" y1="327.32" x2="614" y2="87.82"
						gradientUnits="userSpaceOnUse">
			<stop offset="0" stop-color="#34e28b"/>
			<stop offset="1"/>
		</linearGradient>
		<linearGradient id="linear-gradient-10" x1="145.34" y1="338.16" x2="197.01" y2="298.68"
						xlink:href="#linear-gradient-4"/>
		<linearGradient id="linear-gradient-11" x1="145.8" y1="338.77" x2="197.48" y2="299.29"
						xlink:href="#linear-gradient-4"/>
		<linearGradient id="linear-gradient-12" x1="144.94" y1="337.64" x2="196.61" y2="298.15"
						xlink:href="#linear-gradient-4"/>
		<linearGradient id="linear-gradient-13" x1="144.52" y1="337.1" x2="196.2" y2="297.62"
						xlink:href="#linear-gradient-4"/>
		<linearGradient id="linear-gradient-14" x1="144.17" y1="336.64" x2="195.85" y2="297.16"
						xlink:href="#linear-gradient-4"/>
		<clipPath id="clip-path-2">
			<path class="cls-2"
				  d="M426.08,182.54c.87.44,33.53,28.74,33.53,28.74l65.75-34.84S471.81,153.8,470.5,153.8,426.08,182.54,426.08,182.54Z"/>
		</clipPath>
		<linearGradient id="linear-gradient-16" x1="489.21" y1="197.55" x2="475.86" y2="224.26"
						xlink:href="#linear-gradient-4"/>
		<radialGradient id="radial-gradient-2" cx="271.99" cy="410.29" r="37.01" xlink:href="#linear-gradient-4"/>
		<linearGradient id="linear-gradient-17" x1="237.2" y1="373.72" x2="273.5" y2="373.72"
						gradientUnits="userSpaceOnUse">
			<stop offset="0" stop-color="#c297ff"/>
			<stop offset="1" stop-color="#ae31bb"/>
		</linearGradient>
		<linearGradient id="linear-gradient-18" x1="258.87" y1="402.64" x2="389.4" y2="434.24"
						gradientUnits="userSpaceOnUse">
			<stop offset="0" stop-color="#2db5f9"/>
			<stop offset="1"/>
		</linearGradient>
	</defs>
	<title>dragon2</title>
	<g class="cls-3">
		<g id="Layer_2" data-name="Layer 2">
			<g id="Layer_1-2" data-name="Layer 1">
				<g class="cls-4">
					<line class="cls-5" x1="120.27" y1="319.81" x2="120.27" y2="319.81"/>
					<path class="cls-6"
						  d="M61.83,308.93q.6,1,1.22,1.9a135.13,135.13,0,0,0,21.53,23.91,105.37,105.37,0,0,0,66.94,23.87c1.5,0,3,0,4.61-.12,16.24-1,32.81-5.5,49.22-12.26a157,157,0,0,1-21.17,1.92,86,86,0,0,1-63.91-28.35C101.75,320.06,82.3,316.79,61.83,308.93Z"/>
					<line class="cls-7" x1="120.27" y1="319.81" x2="120.27" y2="319.81"/>
					<path class="cls-8"
						  d="M144,310.2c-.48-1.52,5.46-3.44,7-3.53s7.48,2.13,8.3,2.76a38.07,38.07,0,0,1-11.39,2.4A10.39,10.39,0,0,1,144,310.2Z"/>
					<path class="cls-8"
						  d="M165.36,305.15c-.51-1.18,4.08-3.21,5.34-3.41s6.16,1.08,6.87,1.52a30.62,30.62,0,0,1-8.92,2.87A8.36,8.36,0,0,1,165.36,305.15Z"/>
					<path class="cls-8"
						  d="M183.27,298.58c-.52-.92,3.07-3,4.09-3.28a18.46,18.46,0,0,1,5.79.64,25.33,25.33,0,0,1-7.08,3.15A6.91,6.91,0,0,1,183.27,298.58Z"/>
					<path class="cls-8"
						  d="M197.5,292.11c-.54-.8,2.59-3,3.5-3.28a16.89,16.89,0,0,1,5.33.17,23.18,23.18,0,0,1-6.23,3.38A6.32,6.32,0,0,1,197.5,292.11Z"/>
					<path class="cls-8"
						  d="M210.79,284.85c-.51-.67,2.1-2.69,2.88-3a14.7,14.7,0,0,1,4.63-.11,20.17,20.17,0,0,1-5.25,3.24A5.5,5.5,0,0,1,210.79,284.85Z"/>
					<path class="cls-8"
						  d="M122.54,311.92c-.25-1.69,6.36-2.71,8.05-2.54s7.55,3.52,8.32,4.33c-2.07.66-9.56,1.19-12.46.61A11.13,11.13,0,0,1,122.54,311.92Z"/>
					<path class="cls-9"
						  d="M81.07,365.47a12.78,12.78,0,0,1,5.23-9c.14-.09.29-.16.43-.25a32.63,32.63,0,0,0-3.33-.58c-16-2.38-20,7.12-20.84,17.79,0,.61-.06,1.22-.05,1.83a19.36,19.36,0,0,1,18.37-9.77Z"/>
					<path class="cls-9"
						  d="M100.5,362c-15.85-9.63-24.77-10.33-28.3,16.64,0,0,16.7-13.2,24.57-4.47,8.56,9.49,20.23.74,14.1-4.79S100.5,362,100.5,362Z"/>
					<path class="cls-9"
						  d="M93.93,365.12c-9,6-9,20.09-9,20.09s16.41-8.88,15.13-14.41A6.84,6.84,0,0,0,93.93,365.12Z"/>
					<path class="cls-9"
						  d="M19.22,254.31a12.78,12.78,0,0,1,10.33-1.58c.16.05.31.13.46.18a32.63,32.63,0,0,0-1.63-3C20.26,236,10.31,238.81,1.46,244.82c-.51.35-1,.72-1.46,1.1a19.36,19.36,0,0,1,19.11,8.22Z"/>
					<path class="cls-9"
						  d="M36.23,270.89C30.47,248,25.82,239.17,3.68,255c0,0,18.94-5.44,21.11,21.49,1,12.74,13.25,15.3,13.12,7S36.23,270.89,36.23,270.89Z"/>
					<path class="cls-9"
						  d="M28.16,258.64c-10.52-2.49-20.82,7.13-20.82,7.13s16.16-.56,18.12,9.24C26.57,280.57,28.16,258.64,28.16,258.64Z"/>
					<path class="cls-10" d="M273.3,342.67"/>
					<path class="cls-11"
						  d="M509,259.33a98.8,98.8,0,0,0-18.5-57.68c-10.51-10.2-26.14-17.31-44.17-18.4a78.49,78.49,0,0,1,27.26,59.53c0,26.42-9.59,56.62-40.65,72.87-45.23,23.67-114.63,12.41-159.67,27l.19-.06a47.44,47.44,0,0,0-20.76,26.72c-.12.39-.22.78-.33,1.18h0c13.2-11.55,39.22-19.88,90-13.35,36.25,4.67,65.05,5.94,89.78-1.16,24.72-5.36,44.7-19.58,58.78-39.59h0A98.8,98.8,0,0,0,509,259.33Z"/>
					<g class="cls-12">
						<path class="cls-13"
							  d="M427,184.44a.67.67,0,0,1,.37-.2c22.28-4.26,66.07,4.49,93.41,34.88s-.15,37-.15,37-43.69-42.24-79-36.58C420.39,223,425.75,185.79,427,184.44Z"/>
					</g>
					<path class="cls-14"
						  d="M300.89,425.38c4.94-14.38,20.9-36.58,38-26.42,0,0,13.93,7.84,16.84-14.23,0,0,10.45,51.89-39.84,50.15,0,0,11.32-8.27,11.21-16.77C327.12,418,315.15,425.42,300.89,425.38Z"/>
					<path class="cls-15"
						  d="M321,393.6c5-2.53,9.68-5.09,18.83-1,7.1,3.15,16-9.17,8.3-20.18,0,0,.5,11.36-8.66,11.27C330.45,383.58,325.07,387.62,321,393.6Z"/>
					<path class="cls-16"
						  d="M253.41,367.3a63.9,63.9,0,0,1,7.24-4.44,59,59,0,0,1,5.39-2.42c1.81-.78,3.69-1.34,5.54-2a106.3,106.3,0,0,1,22.93-4.22c15.47-1.21,30.95-.17,46.22,1.82s30.47,3.91,45.81,4.4,30.79-.43,45.65-4.49c-14.77,4.34-30.3,5.56-45.67,5.36s-30.74-1.78-46-3.54-30.59-2.43-45.76-1a103.5,103.5,0,0,0-22.24,4.52c-1.77.63-3.57,1.2-5.28,2a55.88,55.88,0,0,0-5.08,2.39A49.81,49.81,0,0,0,253,372l-1.23,1.09A42.92,42.92,0,0,1,253.41,367.3Z"/>
					<line class="cls-2" x1="252.41" y1="370.51" x2="252.41" y2="370.51"/>
					<path class="cls-19"
						  d="M160,179.17c-17.13-8.3-28.59-18.36-36.2-28.51a105.8,105.8,0,0,0-62,158.26c20.47,7.87,39.92,11.13,58.44,10.88h0A86.22,86.22,0,0,1,160,179.17Z"/>
					<path class="cls-20"
						  d="M116.83,319.81c-8.42-9.25-15.5-24-18.51-37.74A85.69,85.69,0,0,1,96.41,260l.32-5.54.77-5.49a53.47,53.47,0,0,1,1.09-5.43,45.78,45.78,0,0,1,1.4-5.35A82.93,82.93,0,0,1,108.92,218a91.9,91.9,0,0,1,6.24-9.06l3.56-4.19c1.18-1.4,2.56-2.62,3.82-3.94a86.65,86.65,0,0,1,17.4-13.23A92.75,92.75,0,0,1,160,179.17a92.42,92.42,0,0,0-19.75,9,85.67,85.67,0,0,0-16.81,13.59c-1.21,1.34-2.52,2.58-3.64,4L116.45,210a90.09,90.09,0,0,0-5.84,9.06,80.64,80.64,0,0,0-8.1,19.85,43.72,43.72,0,0,0-1.2,5.22,51,51,0,0,0-.9,5.28l-.59,5.32L99.68,260a82.11,82.11,0,0,0,2.46,21.14,84.25,84.25,0,0,0,20.07,36.88l1.54,1.65S118.12,319.91,116.83,319.81Z"/>
					<path class="cls-9"
						  d="M151.52,147a105.75,105.75,0,0,1,90.58,51.1A86.21,86.21,0,0,0,160,179.17c19.31,9.36,45.81,16.49,82.19,19,0,0-1.8-34.65-46.11-52.74-61.88-25.26-70.65-20.23-86.33-46.36,0,0-5.1,26.08,14,51.61A105.88,105.88,0,0,1,151.52,147Z"/>
					<polygon class="cls-21"
							 points="146.15 98.21 219.31 147.85 234.99 114.46 161.54 75.85 147.09 94.5 146.15 98.21"/>
					<polygon class="cls-22"
							 points="441.11 178.91 355.54 196.66 349.66 243.94 453.23 222.5 463.14 187.75 441.11 178.91"/>
					<path class="cls-23"
						  d="M196.1,145.42c-21.19-8.65-36.15-13.75-47.29-17.76a77.8,77.8,0,0,0,11.46,19.69,105.79,105.79,0,0,1,81.84,50.73,85.89,85.89,0,0,0-47.84-21.75c12.41,7.59,27.72,14.93,46.58,21.72l1.37.11S240.41,163.51,196.1,145.42Z"/>
					<path class="cls-24"
						  d="M242.15,198.15l0,0h.22c.68-3.77,4.83-33.69-28.88-59.88-50.34-39.1-60.18-42.73-62.57-63.41,0,0-13.57,23.59-2.12,52.77,11.14,4,26.1,9.11,47.29,17.76,44.31,18.09,46.11,52.74,46.11,52.74Z"/>
					<path class="cls-25"
						  d="M160.23,147.34c4.7,6.78,18.2,18.49,34.08,29a85.89,85.89,0,0,1,47.8,21.74A105.79,105.79,0,0,0,160.23,147.34Z"/>
					<path class="cls-26"
						  d="M160.23,147.34c-2.87-.23-5.77-.37-8.7-.37a105.88,105.88,0,0,0-27.7,3.69c7.61,10.15,19.07,20.21,36.2,28.51a85.53,85.53,0,0,1,34.29-2.84C178.42,165.83,164.93,154.12,160.23,147.34Z"/>
					<path class="cls-18"
						  d="M218.95,171.44c.56,0-12.92-12.19-28.45-17C197.36,167.43,203.24,171.44,218.95,171.44Z"/>
					<path class="cls-24"
						  d="M189,116.17a147.12,147.12,0,0,1,15.24,10.67c1.22.91-2.18-8.27-6.1-10S189,116.17,189,116.17Z"/>
					<path class="cls-24"
						  d="M207.82,129.48c6.71,4,13.54,9.68,15.13,10.82,1.24.89-2.1-8.29-6-10.08S207.82,129.48,207.82,129.48Z"/>
					<path class="cls-24"
						  d="M225.53,142.51a45.63,45.63,0,0,1,8.19,10.22c.61.88.16-6-2.14-8S225.53,142.51,225.53,142.51Z"/>
					<path class="cls-24"
						  d="M126.59,111.89c4.63,5.28,15.57,8.71,15.57,8.71S139.55,114.52,140,103c0-.42-13.39-.22-15.68-11.21C123.85,89.55,122,106.61,126.59,111.89Z"/>
					<path class="cls-24"
						  d="M162.88,186c-14.81,3.27-12.52,15-12.52,15s4.68-5.66,30.48-8.71C180.84,192.34,169.76,189.4,162.88,186Z"/>
					<path class="cls-27"
						  d="M394.94,164.08a78.36,78.36,0,0,1,51.43,19.16c18.1,1.09,33.79,8.26,44.3,18.53,0,0-42.31-61.47-116.92-35.93a97.19,97.19,0,0,0-19.1,9.34A78.37,78.37,0,0,1,394.94,164.08Z"/>
					<path class="cls-28"
						  d="M394.94,164.08a78.31,78.31,0,0,0-40.27,11.08c.72-.44,1.45-.88,2.17-1.3-60.28,35.5-134.17,144.56-236.57,145.94h0a86,86,0,0,0,63.91,28.35,157,157,0,0,0,21.17-1.92C272,318.78,336,253.12,365,221.3c26.94-29.52,56.42-39.55,81.33-38.05A78.36,78.36,0,0,0,394.94,164.08Z"/>
					<path class="cls-29" d="M367.2,168.46l1.17-.51Z"/>
					<path class="cls-30" d="M370.12,167.22l.94-.38Z"/>
					<path class="cls-31" d="M364.39,169.77l1.31-.62Z"/>
					<path class="cls-32" d="M360,172.06q1.67-.92,3.33-1.76Q361.69,171.14,360,172.06Z"/>
					<path class="cls-33" d="M357.37,173.55l2-1.15Z"/>
					<path class="cls-34"
						  d="M365,221.3c10.27-11.54,22.21-21.86,36.07-29.11,13.14-6.92,31.82-11.27,43.1-10.73l4.32,3.71-2.26-.18a87.92,87.92,0,0,0-44.37,8.76C388,200.35,375.74,210.14,365,221.3Z"/>
					<path class="cls-35"
						  d="M205.35,346.24a109.8,109.8,0,0,1-23.13,2.63,86.39,86.39,0,0,1-23.14-3.81,108.78,108.78,0,0,1-21.72-9.12,80.54,80.54,0,0,1-18.92-14.37l-1.61-1.72s5.55-.08,6.92-.13a78.19,78.19,0,0,0,15.64,12.81,105.44,105.44,0,0,0,20.54,9.95,84.34,84.34,0,0,0,22.34,4.93A111.3,111.3,0,0,0,205.35,346.24Z"/>
					<path class="cls-36"
						  d="M371.48,228.5c-12,16.41-29.7,30.15-31.76,33.53s3.49,14.24,11.76,15,1.9-3.16,1.21-7,2.46,2.45,12.29,1-3.56-5.11-2.65-10.09,11-14.38,15.08-23.87,11,0,7.42,7.4c-1.4,2.94,11.21-8.25,4.85-16.79S378.5,218.93,371.48,228.5Z"/>
					<path class="cls-36"
						  d="M337.13,264.39c-1.77,1.69-7,5.52-7,5.52s5.11,7.11,11.69,7c0,0,1.42-.67-.62-2.76S336.67,265.64,337.13,264.39Z"/>
					<g class="cls-37">
						<path class="cls-11"
							  d="M509,259.33a98.8,98.8,0,0,0-18.5-57.68c-10.51-10.2-26.14-17.31-44.17-18.4a78.49,78.49,0,0,1,27.26,59.53c0,26.42-9.59,56.62-40.65,72.87-45.23,23.67-114.63,12.41-159.67,27l.19-.06a47.44,47.44,0,0,0-20.76,26.72c-.12.39-.22.78-.33,1.18h0c13.2-11.55,39.22-19.88,90-13.35,36.25,4.67,65.05,5.94,89.78-1.16,24.72-5.36,44.7-19.58,58.78-39.59h0A98.8,98.8,0,0,0,509,259.33Z"/>
						<g class="cls-12">
							<path class="cls-38"
								  d="M426.85,185.91a.67.67,0,0,1,.37-.2c22.28-4.26,66.07,4.49,93.41,34.88s-.15,37-.15,37-43.69-42.24-79-36.58C420.23,224.44,425.59,187.26,426.85,185.91Z"/>
						</g>
					</g>
					<path class="cls-39"
						  d="M445.81,181.58a80.37,80.37,0,0,1,24.34,6.24,63.88,63.88,0,0,1,20.53,14,63,63,0,0,0-21.17-12.33c-6.78-2.41-14.25-3.42-21-4.28l-4.29-3.71Z"/>
					<path class="cls-40"
						  d="M272.17,434.47c-19.74-17.51-27.57-28.68-30.92-45.82S204.75,413.24,204,415.84s25.7,33.15,57.37,40.6S272.17,434.47,272.17,434.47Z"/>
					<path class="cls-41"
						  d="M239.34,375.48a48.78,48.78,0,0,0-2.13,13.65,51.84,51.84,0,0,0,2.39,15.71c-.7-5-1.74-21.6,12.81-34.34.11-.39.21-.79.33-1.18A47.44,47.44,0,0,1,273.5,342.6l-.19.06a88.16,88.16,0,0,0-9.29,3.57A48.61,48.61,0,0,0,239.34,375.48Z"/>
					<path class="cls-42"
						  d="M284.34,428.83a47.62,47.62,0,0,1-31.87-58.51h0l-.05.18c-14.54,12.72-13.51,29.34-12.81,34.32a48.77,48.77,0,0,0,78.34,21.84A47.44,47.44,0,0,1,284.34,428.83Z"/>
					<path class="cls-43"
						  d="M239.6,404.84a38.21,38.21,0,0,1-.2-9.87,43.42,43.42,0,0,1,2.12-9.75,43.94,43.94,0,0,1,4.35-9.1,46.15,46.15,0,0,1,6.48-7.87l1.06-1s-1.46,4.69-1.64,5.86a44.88,44.88,0,0,0-3.76,4.49,41.56,41.56,0,0,0-7.75,17.47A37.78,37.78,0,0,0,239.6,404.84Z"/>
					<rect class="cls-2" x="473.63" y="489" width="158.09" height="9"/>
				</g>
			</g>
		</g>
	</g>
</svg>
